<svg width="339" height="521" viewBox="0 0 339 521" fill="none" xmlns="http://www.w3.org/2000/svg">
<path d="M101.446 403.862V481.954L169.037 521L236.689 481.954V403.862L169.037 364.876L101.446 403.862Z" fill="#FC3BD2"/>
<path d="M241.94 120.819V120.397L328.24 225.827C334.577 208.085 338.017 188.954 338.017 169.039C338.017 75.6781 262.339 0 168.978 0C75.6177 0 0 75.6781 0 169.039C0 183.221 1.75013 196.98 5.06934 210.136L105.611 87.2048L105.997 86.759L106.396 87.2048L223.775 230.776L205.127 253.588L106.034 132.406L16.5357 241.88C43.7533 298.79 101.809 338.077 169.099 338.077C231.138 338.077 285.332 304.644 314.722 254.855L241.94 165.9L218.344 194.747L199.696 171.935L241.82 120.457L242.001 120.88L241.94 120.819Z" fill="#FC3BD2"/>
</svg>
