<svg width="146" height="67" viewBox="0 0 146 67" fill="none" xmlns="http://www.w3.org/2000/svg">
<path d="M13.8621 51.9592V61.921L22.4843 66.9018L31.1142 61.921V51.9592L22.4843 46.9861L13.8621 51.9592Z" fill="#FC3BD2"/>
<path d="M31.7847 15.8541V15.8002L42.7934 29.2493C43.6018 26.986 44.0406 24.5456 44.0406 22.0051C44.0406 10.0957 34.3868 0.441895 22.4774 0.441895C10.568 0.441895 0.921875 10.0957 0.921875 22.0051C0.921875 23.8142 1.14513 25.5694 1.56854 27.2477L14.3941 11.5661L14.4433 11.5092L14.4941 11.5661L29.4675 29.8805L27.0887 32.7905L14.4479 17.3322L3.03123 31.2971C6.50321 38.5566 13.9091 43.5683 22.4928 43.5683C30.4067 43.5683 37.3199 39.3034 41.069 32.9522L31.7847 21.6048L28.7747 25.2846L26.3958 22.3746L31.7693 15.8079L31.7924 15.8618L31.7847 15.8541Z" fill="#FC3BD2"/>
<path d="M137.063 61.9369H134.275L138.356 51.7632H141L145.038 61.9369H142.236L141.733 60.5H137.58L137.063 61.9369ZM140.914 58.1577L139.678 54.6659L138.399 58.1577H140.914Z" fill="#FC3BD2"/>
<path d="M125.659 61.9369V51.7632H130.718C131.149 51.7632 131.551 51.8111 131.925 51.9069C132.298 51.9931 132.624 52.1416 132.902 52.3523C133.18 52.5631 133.395 52.8409 133.548 53.1858C133.711 53.5307 133.793 53.9618 133.793 54.4791C133.793 54.8431 133.706 55.1975 133.534 55.5424C133.371 55.8777 133.141 56.1412 132.844 56.3328C133.247 56.5244 133.577 56.8165 133.836 57.2093C134.094 57.5925 134.224 58.0907 134.224 58.7038C134.224 59.2594 134.123 59.7336 133.922 60.1264C133.721 60.5191 133.472 60.8401 133.175 61.0891C132.744 61.4436 132.241 61.6735 131.666 61.7789C131.101 61.8843 130.507 61.9369 129.884 61.9369H125.659ZM130.085 55.7149C130.488 55.7149 130.775 55.6334 130.947 55.4706C131.129 55.3077 131.216 55.1161 131.206 54.8958C131.206 54.6371 131.12 54.4503 130.947 54.3354C130.785 54.2204 130.536 54.1629 130.2 54.1629H128.26V55.7149H130.085ZM128.26 59.5372H130.33C130.789 59.5372 131.12 59.4558 131.321 59.2929C131.522 59.1301 131.623 58.9145 131.623 58.6463C131.623 58.0907 131.225 57.8128 130.43 57.8128H128.26V59.5372Z" fill="#FC3BD2"/>
<path d="M124.31 51.7632V54.1773H119.237V55.7292H123.419V58.0284H119.237V59.5372H124.31V61.9369H116.636V51.7632H124.31Z" fill="#FC3BD2"/>
<path d="M115.572 51.7632V54.1773H110.5V55.7292H114.681V58.0284H110.5V59.5372H115.572V61.9369H107.899V51.7632H115.572Z" fill="#FC3BD2"/>
<path d="M101.299 54.1773V56.1316C101.299 56.9746 101.275 57.7554 101.227 58.4738C101.189 59.1828 101.06 59.7959 100.839 60.3132C100.628 60.8305 100.288 61.2328 99.8189 61.5202C99.3591 61.8076 98.7077 61.9513 97.8647 61.9513H97.3186V59.4941C97.4527 59.4941 97.5868 59.4845 97.721 59.4654C97.8647 59.4462 97.9892 59.4079 98.0946 59.3504C98.2383 59.2833 98.3532 59.1828 98.4394 59.0486C98.5257 58.9145 98.5927 58.7708 98.6406 58.6175C98.6885 58.4643 98.722 58.3206 98.7412 58.1865C98.7699 58.0523 98.7939 57.9038 98.8131 57.741C98.8322 57.5398 98.8466 57.3291 98.8562 57.1087C98.8657 56.8884 98.8705 56.6728 98.8705 56.4621C98.8801 56.2417 98.8849 56.0454 98.8849 55.8729C98.8945 55.7005 98.8993 55.5424 98.8993 55.3987V51.7632H106.4V61.9369H103.799V54.1773H101.299Z" fill="#FC3BD2"/>
<path d="M96.389 51.7632V54.1773H91.3165V55.7292H95.4981V58.0284H91.3165V59.5372H96.389V61.9369H88.7156V51.7632H96.389Z" fill="#FC3BD2"/>
<path d="M87.654 64.3511H85.0531V61.9369H79.6213V64.3511H77.0204V59.5372C77.4515 59.5372 77.7676 59.4127 77.9688 59.1636C78.17 58.9145 78.3089 58.6175 78.3855 58.2727C78.5196 57.6979 78.6058 57.1231 78.6442 56.5483C78.6825 55.9735 78.7112 55.4083 78.7304 54.8527C78.7495 54.3258 78.7639 53.8085 78.7735 53.3007C78.7831 52.7834 78.7879 52.2709 78.7879 51.7632H86.4326V59.5372H87.654V64.3511ZM81.1014 56.8788C81.0918 57.0512 81.0774 57.2524 81.0583 57.4823C81.0487 57.7123 81.0295 57.9517 81.0008 58.2008C80.9721 58.4403 80.929 58.6798 80.8715 58.9193C80.8236 59.1492 80.7565 59.3552 80.6703 59.5372H83.8316V54.1773H81.1445C81.1445 54.618 81.1397 54.9868 81.1301 55.2838C81.1301 55.5712 81.1253 55.8154 81.1158 56.0166C81.1158 56.2082 81.111 56.3711 81.1014 56.5052C81.1014 56.6393 81.1014 56.7638 81.1014 56.8788Z" fill="#FC3BD2"/>
<path d="M69.6644 55.7149H73.3574V51.7632H75.9583V61.9369H73.3574V58.1002H69.6644V61.9369H67.0635V51.7632H69.6644V55.7149Z" fill="#FC3BD2"/>
<path d="M65.6993 51.7632V54.1773H60.6268V55.7292H64.8084V58.0284H60.6268V59.5372H65.6993V61.9369H58.0259V51.7632H65.6993Z" fill="#FC3BD2"/>
<path d="M74.3411 49.3828H71.7402V46.9687H66.3084V49.3828H63.7075V44.5689C64.1386 44.5689 64.4547 44.4444 64.6559 44.1953C64.8571 43.9463 64.996 43.6493 65.0726 43.3044C65.2068 42.7296 65.293 42.1548 65.3313 41.58C65.3696 41.0052 65.3984 40.44 65.4175 39.8844C65.4367 39.3575 65.451 38.8402 65.4606 38.3325C65.4702 37.8152 65.475 37.3027 65.475 36.7949H73.1197V44.5689H74.3411V49.3828ZM67.7885 41.9105C67.7789 42.083 67.7646 42.2842 67.7454 42.5141C67.7358 42.744 67.7167 42.9835 67.6879 43.2326C67.6592 43.4721 67.6161 43.7115 67.5586 43.951C67.5107 44.181 67.4436 44.3869 67.3574 44.5689H70.5188V39.209H67.8316C67.8316 39.6497 67.8268 40.0185 67.8173 40.3155C67.8173 40.6029 67.8125 40.8472 67.8029 41.0484C67.8029 41.24 67.7981 41.4028 67.7885 41.5369C67.7885 41.671 67.7885 41.7956 67.7885 41.9105Z" fill="#FC3BD2"/>
<path d="M58.1536 36.6655C58.9199 36.6655 59.6193 36.7901 60.2515 37.0391C60.8934 37.2786 61.4394 37.6235 61.8897 38.0738C62.3495 38.5144 62.704 39.0557 62.953 39.6975C63.2117 40.3298 63.341 41.0387 63.341 41.8243C63.341 42.6002 63.2165 43.3139 62.9674 43.9653C62.7183 44.6072 62.3639 45.1628 61.9041 45.6322C61.4442 46.0921 60.8934 46.4513 60.2515 46.71C59.6193 46.959 58.9151 47.0836 58.1392 47.0836C57.3441 47.0836 56.6256 46.959 55.9837 46.71C55.3419 46.4609 54.791 46.1112 54.3312 45.661C53.881 45.2011 53.5313 44.6503 53.2822 44.0085C53.0427 43.3666 52.923 42.6529 52.923 41.8674C52.923 41.0818 53.0475 40.3681 53.2966 39.7263C53.5552 39.0844 53.9145 38.5384 54.3743 38.0881C54.8341 37.6379 55.385 37.2882 56.0268 37.0391C56.6687 36.7901 57.3776 36.6655 58.1536 36.6655ZM55.5814 41.853C55.5814 42.1979 55.6293 42.538 55.7251 42.8732C55.8304 43.199 55.9885 43.4959 56.1993 43.7642C56.41 44.0228 56.6783 44.2336 57.004 44.3964C57.3393 44.5497 57.7416 44.6264 58.211 44.6264C58.6517 44.6264 59.0253 44.5449 59.3319 44.3821C59.648 44.2096 59.9067 43.9941 60.1078 43.7354C60.309 43.4672 60.4527 43.175 60.5389 42.8589C60.6347 42.5332 60.6826 42.2122 60.6826 41.8961C60.6826 41.5991 60.6395 41.2878 60.5533 40.9621C60.4671 40.6268 60.3234 40.325 60.1222 40.0568C59.921 39.7885 59.6576 39.5682 59.3319 39.3958C59.0157 39.2138 58.6278 39.1227 58.1679 39.1227C57.7081 39.1227 57.3105 39.2042 56.9752 39.367C56.6495 39.5299 56.3813 39.7406 56.1705 39.9993C55.9694 40.258 55.8209 40.5501 55.7251 40.8759C55.6293 41.2016 55.5814 41.5273 55.5814 41.853Z" fill="#FC3BD2"/>
<path d="M44.9939 46.9687V36.7949H52.3512V39.209H47.5948V46.9687H44.9939Z" fill="#FC3BD2"/>
<path d="M48.2846 51.7632L50.7705 56.2178L53.2421 51.7632H56.4035V61.9369H53.8025V55.4562L51.2304 59.9252H50.2101L47.5948 55.4562V61.9369H44.9939V51.7632H48.2846Z" fill="#FC3BD2"/>
<path d="M137.016 43.2192V43.332H136.885C136.797 43.332 136.72 43.3633 136.653 43.4259C136.59 43.4802 136.538 43.5532 136.496 43.6451L135.638 45.9058C135.605 45.9935 135.565 46.0895 135.519 46.1939C135.473 46.2941 135.417 46.3943 135.35 46.4945C135.288 46.5905 135.212 46.6782 135.125 46.7575C135.041 46.8327 134.947 46.887 134.843 46.9204C134.785 46.9371 134.68 46.9496 134.53 46.9579C134.38 46.9663 134.204 46.9705 134.004 46.9705H133.81V46.7888C133.96 46.7847 134.085 46.7784 134.185 46.7701C134.286 46.7617 134.373 46.7492 134.448 46.7325C134.524 46.7116 134.595 46.6824 134.661 46.6448C134.732 46.6031 134.812 46.5467 134.899 46.4757C134.979 46.3839 135.079 46.1981 135.2 45.9184L135.225 45.8244C134.807 45.0521 134.484 44.4738 134.254 44.0897C134.025 43.7014 133.887 43.4906 133.841 43.4572C133.732 43.3695 133.636 43.3257 133.553 43.3257H133.421V43.2192H134.743V43.3194H134.611C134.478 43.3194 134.411 43.3654 134.411 43.4572C134.411 43.4781 134.413 43.4927 134.417 43.501C134.43 43.5553 134.517 43.7328 134.68 44.0334C134.843 44.334 135.081 44.7765 135.394 45.361L136.058 43.6639C136.05 43.5595 136.016 43.4802 135.958 43.4259C135.883 43.3633 135.803 43.332 135.72 43.332H135.626V43.2192H137.016Z" fill="#FC3BD2"/>
<path d="M132.619 46.5823C132.69 46.6575 132.763 46.7139 132.838 46.7514C132.914 46.7848 133.024 46.8036 133.17 46.8078V46.9706H132.882C132.836 46.9706 132.776 46.9685 132.701 46.9644C132.626 46.956 132.544 46.9414 132.456 46.9205C132.373 46.8955 132.285 46.86 132.193 46.8141C132.106 46.764 132.024 46.6951 131.949 46.6074L130.59 45.1107L131.924 43.5325C131.945 43.5116 131.955 43.4908 131.955 43.4699C131.955 43.4114 131.916 43.3822 131.836 43.3822H131.73V43.2131H133.07V43.3822H132.995C132.886 43.3822 132.784 43.401 132.688 43.4386C132.592 43.472 132.511 43.52 132.444 43.5826L131.148 44.9666L132.619 46.5823ZM130.427 46.5322C130.432 46.6116 130.463 46.6784 130.521 46.7326C130.58 46.7869 130.651 46.8141 130.734 46.8141H130.86V46.9769H129.507V46.8141H129.632C129.716 46.8141 129.787 46.7869 129.845 46.7326C129.903 46.6784 129.935 46.6116 129.939 46.5322V43.664C129.935 43.5889 129.903 43.5242 129.845 43.4699C129.787 43.4156 129.716 43.3885 129.632 43.3885H129.507V43.2194H130.86V43.3885H130.734C130.651 43.3885 130.58 43.4156 130.521 43.4699C130.463 43.52 130.432 43.5805 130.427 43.6515V46.5322Z" fill="#FC3BD2"/>
<path d="M129.249 43.2192V43.332H129.118C129.03 43.332 128.953 43.3633 128.886 43.4259C128.823 43.4802 128.771 43.5532 128.73 43.6451L127.872 45.9058C127.838 45.9935 127.799 46.0895 127.753 46.1939C127.707 46.2941 127.65 46.3943 127.584 46.4945C127.521 46.5905 127.446 46.6782 127.358 46.7575C127.275 46.8327 127.181 46.887 127.076 46.9204C127.018 46.9371 126.913 46.9496 126.763 46.9579C126.613 46.9663 126.437 46.9705 126.237 46.9705H126.043V46.7888C126.193 46.7847 126.318 46.7784 126.419 46.7701C126.519 46.7617 126.607 46.7492 126.682 46.7325C126.757 46.7116 126.828 46.6824 126.895 46.6448C126.966 46.6031 127.045 46.5467 127.133 46.4757C127.212 46.3839 127.312 46.1981 127.433 45.9184L127.458 45.8244C127.041 45.0521 126.717 44.4738 126.488 44.0897C126.258 43.7014 126.12 43.4906 126.074 43.4572C125.966 43.3695 125.87 43.3257 125.786 43.3257H125.655V43.2192H126.976V43.3194H126.845C126.711 43.3194 126.644 43.3654 126.644 43.4572C126.644 43.4781 126.646 43.4927 126.65 43.501C126.663 43.5553 126.751 43.7328 126.913 44.0334C127.076 44.334 127.314 44.7765 127.627 45.361L128.291 43.6639C128.283 43.5595 128.249 43.4802 128.191 43.4259C128.116 43.3633 128.036 43.332 127.953 43.332H127.859V43.2192H129.249Z" fill="#FC3BD2"/>
<path d="M124.99 46.4819C125.044 46.5988 125.109 46.6823 125.184 46.7324C125.263 46.7825 125.338 46.8076 125.409 46.8076H125.509V46.9704H124.157V46.8076H124.257C124.303 46.8076 124.345 46.7909 124.382 46.7575C124.424 46.7241 124.445 46.6761 124.445 46.6134C124.445 46.5842 124.439 46.5508 124.426 46.5132L124.107 45.7367H122.635L122.316 46.4945C122.299 46.532 122.291 46.5717 122.291 46.6134C122.291 46.6761 122.309 46.7241 122.347 46.7575C122.385 46.7909 122.426 46.8076 122.472 46.8076H122.572V46.9704H121.307V46.8076H121.408C121.479 46.8076 121.554 46.7825 121.633 46.7324C121.712 46.6823 121.781 46.5988 121.84 46.4819L123.105 43.7828C123.146 43.6951 123.184 43.6116 123.217 43.5323C123.247 43.4613 123.272 43.3883 123.293 43.3131C123.318 43.238 123.332 43.1753 123.336 43.1252H123.474L124.99 46.4819ZM123.988 45.4486L123.38 43.9707L122.754 45.4486H123.988Z" fill="#FC3BD2"/>
<path d="M119.641 46.9769V46.8141H119.76C119.844 46.8141 119.915 46.7869 119.973 46.7326C120.031 46.6784 120.063 46.6116 120.067 46.5322V45.261H117.925V46.5322C117.929 46.6116 117.961 46.6784 118.019 46.7326C118.078 46.7869 118.149 46.8141 118.232 46.8141H118.351V46.9769H117.005V46.8141H117.124C117.207 46.8141 117.278 46.7869 117.337 46.7326C117.395 46.6784 117.426 46.6116 117.43 46.5322V43.664C117.426 43.5889 117.395 43.5242 117.337 43.4699C117.278 43.4156 117.207 43.3885 117.124 43.3885H117.005V43.2194H118.351V43.3885H118.226C118.146 43.3885 118.078 43.4156 118.019 43.4699C117.965 43.52 117.936 43.5805 117.931 43.6515V44.9729H120.073V43.6578C120.069 43.5826 120.038 43.5179 119.979 43.4636C119.921 43.4094 119.85 43.3822 119.766 43.3822H119.647V43.2131H120.994V43.3822H120.875C120.796 43.3822 120.727 43.4094 120.668 43.4636C120.614 43.5179 120.583 43.5805 120.574 43.6515V46.526C120.578 46.6053 120.61 46.6721 120.668 46.7264C120.727 46.7807 120.798 46.8078 120.881 46.8078H121V46.9706L119.641 46.9769Z" fill="#FC3BD2"/>
<path d="M109.069 46.9767V46.8138H109.201C109.297 46.8138 109.378 46.7867 109.445 46.7324C109.516 46.6781 109.556 46.6134 109.564 46.5383V43.6638C109.556 43.5887 109.516 43.524 109.445 43.4697C109.378 43.4154 109.297 43.3883 109.201 43.3883H109.069V43.2192H110.554V43.3883H110.422C110.33 43.3883 110.249 43.4154 110.178 43.4697C110.111 43.524 110.074 43.5866 110.065 43.6576V44.9539H110.716C110.733 44.7159 110.787 44.4967 110.879 44.2963C110.992 44.0542 111.144 43.8475 111.336 43.6763C111.529 43.501 111.752 43.3653 112.007 43.2693C112.265 43.1733 112.541 43.1252 112.833 43.1252C113.125 43.1252 113.399 43.1733 113.654 43.2693C113.908 43.3653 114.132 43.501 114.324 43.6763C114.516 43.8475 114.666 44.0542 114.775 44.2963C114.887 44.5343 114.944 44.7994 114.944 45.0917C114.944 45.3839 114.887 45.6511 114.775 45.8933C114.666 46.1312 114.516 46.3379 114.324 46.5132C114.132 46.6844 113.908 46.818 113.654 46.914C113.399 47.0101 113.125 47.0581 112.833 47.0581C112.541 47.0581 112.265 47.0101 112.007 46.914C111.752 46.818 111.529 46.6844 111.336 46.5132C111.144 46.3379 110.992 46.1312 110.879 45.8933C110.787 45.6887 110.733 45.4674 110.716 45.2294H110.065V46.5383C110.069 46.6134 110.105 46.6781 110.172 46.7324C110.243 46.7867 110.326 46.8138 110.422 46.8138H110.554V46.9767H109.069ZM112.833 46.77C113.05 46.77 113.253 46.7303 113.441 46.651C113.629 46.5675 113.791 46.4527 113.929 46.3066C114.071 46.1605 114.182 45.9851 114.261 45.7805C114.34 45.5718 114.38 45.3422 114.38 45.0917C114.38 44.8412 114.34 44.6136 114.261 44.409C114.182 44.2003 114.071 44.0229 113.929 43.8767C113.791 43.7306 113.629 43.6179 113.441 43.5386C113.253 43.4551 113.05 43.4133 112.833 43.4133C112.616 43.4133 112.412 43.4551 112.219 43.5386C112.032 43.6179 111.867 43.7306 111.725 43.8767C111.587 44.0229 111.478 44.2003 111.399 44.409C111.32 44.6136 111.28 44.8412 111.28 45.0917C111.28 45.3422 111.32 45.5718 111.399 45.7805C111.478 45.9851 111.587 46.1605 111.725 46.3066C111.867 46.4527 112.032 46.5675 112.219 46.651C112.412 46.7303 112.616 46.77 112.833 46.77Z" fill="#FC3BD2"/>
<path d="M108.773 43.2192V43.332H108.642C108.554 43.332 108.477 43.3633 108.41 43.4259C108.348 43.4802 108.295 43.5532 108.254 43.6451L107.396 45.9058C107.362 45.9935 107.323 46.0895 107.277 46.1939C107.231 46.2941 107.174 46.3943 107.108 46.4945C107.045 46.5905 106.97 46.6782 106.882 46.7575C106.799 46.8327 106.705 46.887 106.6 46.9204C106.542 46.9371 106.437 46.9496 106.287 46.9579C106.137 46.9663 105.962 46.9705 105.761 46.9705H105.567V46.7888C105.717 46.7847 105.843 46.7784 105.943 46.7701C106.043 46.7617 106.131 46.7492 106.206 46.7325C106.281 46.7116 106.352 46.6824 106.419 46.6448C106.49 46.6031 106.569 46.5467 106.657 46.4757C106.736 46.3839 106.836 46.1981 106.957 45.9184L106.982 45.8244C106.565 45.0521 106.241 44.4738 106.012 44.0897C105.782 43.7014 105.644 43.4906 105.598 43.4572C105.49 43.3695 105.394 43.3257 105.31 43.3257H105.179V43.2192H106.5V43.3194H106.369C106.235 43.3194 106.168 43.3654 106.168 43.4572C106.168 43.4781 106.17 43.4927 106.174 43.501C106.187 43.5553 106.275 43.7328 106.437 44.0334C106.6 44.334 106.838 44.7765 107.151 45.361L107.815 43.6639C107.807 43.5595 107.773 43.4802 107.715 43.4259C107.64 43.3633 107.561 43.332 107.477 43.332H107.383V43.2192H108.773Z" fill="#FC3BD2"/>
<path d="M104.809 43.3638H104.696C104.621 43.3638 104.556 43.3909 104.502 43.4452C104.447 43.4994 104.418 43.5642 104.414 43.6393V46.5388C104.418 46.6098 104.447 46.6724 104.502 46.7267C104.556 46.7768 104.621 46.8018 104.696 46.8018H104.815V46.9709H99.5857V46.8018H99.7047C99.7464 46.8018 99.7861 46.7935 99.8237 46.7768H99.8299C99.855 46.7601 99.8779 46.7413 99.8988 46.7204L99.9113 46.7079C99.928 46.6912 99.9406 46.6745 99.9489 46.6578C99.9573 46.6369 99.9656 46.6161 99.974 46.5952L99.9802 46.5764C99.9844 46.5597 99.9865 46.543 99.9865 46.5263V43.6393V43.6268C99.9781 43.5558 99.9489 43.4953 99.8988 43.4452C99.8821 43.4326 99.8675 43.4201 99.855 43.4076C99.8383 43.3992 99.8195 43.3909 99.7986 43.3825C99.7861 43.3784 99.7757 43.3742 99.7673 43.37C99.7631 43.37 99.759 43.37 99.7548 43.37C99.7464 43.3658 99.7381 43.3638 99.7297 43.3638H99.7047H99.5857V43.2009H100.888V43.3638H100.769C100.694 43.3638 100.629 43.3909 100.575 43.4452L100.55 43.4702C100.513 43.5203 100.492 43.5767 100.487 43.6393V46.4136V46.4324C100.492 46.4491 100.494 46.4658 100.494 46.4825C100.498 46.4908 100.5 46.4992 100.5 46.5075C100.513 46.5367 100.531 46.566 100.556 46.5952C100.561 46.5994 100.565 46.6035 100.569 46.6077C100.611 46.6495 100.657 46.6766 100.707 46.6891C100.723 46.6891 100.74 46.6891 100.757 46.6891H101.677H101.702C101.711 46.6891 101.717 46.6891 101.721 46.6891C101.734 46.6849 101.744 46.6808 101.753 46.6766C101.794 46.6641 101.832 46.6411 101.865 46.6077C101.874 46.5952 101.882 46.5847 101.89 46.5764C101.899 46.568 101.905 46.5597 101.909 46.5513C101.913 46.5388 101.917 46.5284 101.922 46.52C101.926 46.5075 101.93 46.4971 101.934 46.4887L101.94 46.4762V43.6393C101.936 43.5642 101.907 43.4994 101.853 43.4452C101.803 43.3992 101.746 43.3721 101.684 43.3638H101.671H101.54V43.2009H102.861L102.842 43.3638H102.729H102.723H102.698C102.69 43.3679 102.679 43.37 102.667 43.37C102.642 43.3784 102.619 43.3867 102.598 43.3951C102.59 43.4034 102.579 43.4118 102.567 43.4201C102.562 43.4243 102.556 43.4285 102.548 43.4326L102.535 43.4452L102.51 43.4702C102.506 43.4786 102.502 43.4848 102.498 43.489C102.477 43.5182 102.462 43.5495 102.454 43.5829C102.454 43.5871 102.452 43.5913 102.448 43.5955C102.448 43.6122 102.448 43.6268 102.448 43.6393V46.4699C102.46 46.5242 102.485 46.5701 102.523 46.6077C102.577 46.662 102.64 46.6891 102.711 46.6891H103.644C103.715 46.6891 103.777 46.662 103.832 46.6077C103.886 46.5493 103.915 46.4804 103.919 46.401V43.6393C103.915 43.5642 103.886 43.4994 103.832 43.4452C103.777 43.3909 103.713 43.3638 103.638 43.3638H103.519V43.2009H104.827L104.809 43.3638Z" fill="#FC3BD2"/>
<path d="M96.1368 46.9769V46.8078H96.2746C96.3581 46.8078 96.4291 46.7827 96.4875 46.7326C96.546 46.6784 96.5773 46.6137 96.5815 46.5385V43.6578C96.5773 43.5784 96.5481 43.5116 96.4938 43.4574C96.4395 43.4031 96.3706 43.376 96.2871 43.376H96.1494V43.2131H97.5208V43.376H97.3831C97.2996 43.376 97.2286 43.4031 97.1701 43.4574C97.1159 43.5116 97.0866 43.5784 97.0825 43.6578V46.6825H97.621C97.9049 46.6825 98.1262 46.6157 98.2849 46.4821C98.4477 46.3485 98.5291 46.1669 98.5291 45.9373C98.5291 45.8872 98.5249 45.8329 98.5166 45.7745C98.5124 45.716 98.5041 45.6659 98.4915 45.6242C98.4456 45.4948 98.3851 45.3904 98.3099 45.3111C98.2389 45.2276 98.1617 45.1649 98.0782 45.1232C97.9947 45.0773 97.9091 45.048 97.8214 45.0355C97.7379 45.0188 97.6586 45.0105 97.5835 45.0105C97.5375 45.0105 97.4916 45.0126 97.4457 45.0167C97.4039 45.0209 97.3664 45.0272 97.333 45.0355C97.2912 45.0439 97.2516 45.0522 97.214 45.0606V44.9666C97.3351 44.9082 97.454 44.8602 97.5709 44.8226C97.6878 44.785 97.8006 44.7662 97.9091 44.7662C98.0678 44.7662 98.216 44.7934 98.3538 44.8476C98.4957 44.8977 98.6189 44.9666 98.7232 45.0543C98.8318 45.1378 98.9174 45.2505 98.98 45.3925C99.0426 45.5344 99.0739 45.6952 99.0739 45.8747C99.0739 46.0417 99.0384 46.192 98.9675 46.3256C98.9007 46.4592 98.8026 46.574 98.6731 46.67C98.5479 46.7619 98.3955 46.8349 98.216 46.8892C98.0406 46.9393 97.8465 46.9664 97.6336 46.9706L96.1368 46.9769Z" fill="#FC3BD2"/>
<path d="M92.9422 45.6869C92.9422 45.737 92.9401 45.7871 92.9359 45.8372V45.9499L92.9109 45.9749C92.8984 46.0501 92.8775 46.1231 92.8483 46.1941C92.7856 46.3486 92.7001 46.4843 92.5915 46.6012C92.483 46.7139 92.3535 46.8037 92.2032 46.8705C92.0571 46.9331 91.8505 46.9644 91.5833 46.9644V46.8016C91.7795 46.764 91.9214 46.7118 92.0091 46.645C92.0968 46.574 92.1719 46.4864 92.2345 46.382C92.2972 46.2776 92.3473 46.1649 92.3848 46.0438C92.4099 45.9645 92.4266 45.8831 92.4349 45.7996V43.6077C92.4308 43.5326 92.4015 43.4679 92.3473 43.4136C92.293 43.3593 92.2283 43.3322 92.1531 43.3322H92.0341V43.1631H95.7541V43.3322H95.6351C95.5599 43.3322 95.4952 43.3593 95.4409 43.4136C95.3867 43.4637 95.3574 43.5242 95.3533 43.5952V46.5323C95.3574 46.6074 95.3867 46.6722 95.4409 46.7264C95.4952 46.7807 95.5599 46.8078 95.6351 46.8078H95.7478L95.7666 46.9707H94.4577V46.8078H94.5767C94.6519 46.8078 94.7166 46.7807 94.7708 46.7264C94.8251 46.6722 94.8543 46.6074 94.8585 46.5323V43.733C94.8543 43.6536 94.8251 43.5868 94.7708 43.5326C94.7166 43.4741 94.6539 43.4449 94.583 43.4449H93.2052C93.1343 43.4449 93.0716 43.472 93.0174 43.5263C92.9673 43.5806 92.9401 43.6453 92.9359 43.7204L92.9422 45.6869Z" fill="#FC3BD2"/>
<path d="M89.1458 43.1252C89.438 43.1252 89.7115 43.1733 89.9661 43.2693C90.2208 43.3653 90.4442 43.501 90.6362 43.6763C90.8283 43.8475 90.9786 44.0542 91.0871 44.2963C91.1999 44.5343 91.2562 44.7994 91.2562 45.0917C91.2562 45.3839 91.1999 45.6511 91.0871 45.8933C90.9786 46.1312 90.8283 46.3379 90.6362 46.5132C90.4442 46.6844 90.2208 46.818 89.9661 46.914C89.7115 47.0101 89.438 47.0581 89.1458 47.0581C88.8535 47.0581 88.578 47.0101 88.3191 46.914C88.0644 46.818 87.8411 46.6844 87.649 46.5132C87.457 46.3379 87.3046 46.1312 87.1919 45.8933C87.0833 45.6511 87.0291 45.3839 87.0291 45.0917C87.0291 44.7994 87.0833 44.5343 87.1919 44.2963C87.3046 44.0542 87.457 43.8475 87.649 43.6763C87.8411 43.501 88.0644 43.3653 88.3191 43.2693C88.578 43.1733 88.8535 43.1252 89.1458 43.1252ZM89.1458 46.77C89.3629 46.77 89.5654 46.7303 89.7532 46.651C89.9411 46.5675 90.1039 46.4527 90.2417 46.3066C90.3836 46.1605 90.4943 45.9851 90.5736 45.7805C90.6529 45.5718 90.6926 45.3422 90.6926 45.0917C90.6926 44.8412 90.6529 44.6136 90.5736 44.409C90.4943 44.2003 90.3836 44.0229 90.2417 43.8767C90.1039 43.7306 89.9411 43.6179 89.7532 43.5386C89.5654 43.4551 89.3629 43.4133 89.1458 43.4133C88.9287 43.4133 88.7241 43.4551 88.532 43.5386C88.3442 43.6179 88.1793 43.7306 88.0373 43.8767C87.8995 44.0229 87.791 44.2003 87.7117 44.409C87.6323 44.6136 87.5927 44.8412 87.5927 45.0917C87.5927 45.3422 87.6323 45.5718 87.7117 45.7805C87.791 45.9851 87.8995 46.1605 88.0373 46.3066C88.1793 46.4527 88.3442 46.5675 88.532 46.651C88.7241 46.7303 88.9287 46.77 89.1458 46.77Z" fill="#FC3BD2"/>
<path d="M83.5614 46.9769V46.8078H83.6992C83.7827 46.8078 83.8536 46.7827 83.9121 46.7326C83.9705 46.6784 84.0019 46.6137 84.006 46.5385V43.6578C84.0019 43.5784 83.9726 43.5116 83.9184 43.4574C83.8641 43.4073 83.7973 43.3801 83.718 43.376H83.5739V43.2131H86.1165L86.486 44.1776L86.3044 44.2026C86.2626 44.1024 86.2146 44.0126 86.1603 43.9333C86.1102 43.8498 86.0476 43.7788 85.9725 43.7204C85.9015 43.6578 85.8159 43.6098 85.7157 43.5764C85.6197 43.5388 85.5049 43.5179 85.3713 43.5137H84.5509C84.5216 43.5555 84.507 43.6035 84.507 43.6578V46.6825H85.1771C85.461 46.6825 85.6823 46.6157 85.8409 46.4821C86.0038 46.3485 86.0852 46.1669 86.0852 45.9373C86.0852 45.8872 86.081 45.8329 86.0726 45.7745C86.0685 45.716 86.0601 45.6659 86.0476 45.6242C86.0017 45.4948 85.9411 45.3904 85.866 45.3111C85.795 45.2276 85.7178 45.1649 85.6343 45.1232C85.5508 45.0773 85.4652 45.048 85.3775 45.0355C85.294 45.0188 85.2147 45.0105 85.1395 45.0105C85.0936 45.0105 85.0477 45.0126 85.0018 45.0167C84.96 45.0209 84.9224 45.0272 84.889 45.0355C84.8473 45.0439 84.8076 45.0522 84.7701 45.0606V44.9666C84.8911 44.9082 85.0101 44.8602 85.127 44.8226C85.2439 44.785 85.3566 44.7662 85.4652 44.7662C85.6238 44.7662 85.7721 44.7934 85.9098 44.8476C86.0518 44.8977 86.1749 44.9666 86.2793 45.0543C86.3879 45.1378 86.4734 45.2505 86.5361 45.3925C86.5987 45.5344 86.63 45.6952 86.63 45.8747C86.63 46.0417 86.5945 46.192 86.5235 46.3256C86.4567 46.4592 86.3586 46.574 86.2292 46.67C86.104 46.7619 85.9516 46.8349 85.7721 46.8892C85.5967 46.9393 85.4026 46.9664 85.1896 46.9706L83.5614 46.9769Z" fill="#FC3BD2"/>
<path d="M79.9173 43.2131C80.0301 43.2131 80.1616 43.2236 80.3119 43.2444C80.4663 43.2653 80.6104 43.3092 80.744 43.376C80.8818 43.4428 80.9966 43.5409 81.0884 43.6703C81.1844 43.7997 81.2325 43.9709 81.2325 44.1838C81.2325 44.3508 81.1803 44.499 81.0759 44.6285C80.9757 44.7537 80.8546 44.8518 80.7127 44.9228C80.9715 44.9896 81.1824 45.1107 81.3452 45.286C81.508 45.4614 81.5894 45.6659 81.5894 45.8997C81.5894 46.1085 81.5435 46.2817 81.4516 46.4195C81.364 46.5531 81.2512 46.6617 81.1135 46.7452C80.9757 46.8245 80.8233 46.8809 80.6563 46.9143C80.4893 46.9477 80.3286 46.9644 80.1741 46.9644H78.6147V46.8015H78.74C78.8277 46.8015 78.9007 46.7744 78.9592 46.7201C79.0176 46.6658 79.0489 46.6011 79.0531 46.526V43.6515C79.0489 43.5722 79.0176 43.5075 78.9592 43.4574C78.9007 43.4073 78.8277 43.3822 78.74 43.3822H78.6147V43.2131H79.9173ZM80.1741 46.6825C80.2952 46.6825 80.4079 46.6679 80.5123 46.6387C80.6208 46.6053 80.7127 46.5573 80.7878 46.4947C80.8671 46.4279 80.9298 46.3465 80.9757 46.2504C81.0216 46.1502 81.0446 46.0333 81.0446 45.8997C81.0446 45.716 81.0007 45.5678 80.9131 45.4551C80.8296 45.3424 80.7189 45.2568 80.5812 45.1983C80.4476 45.1357 80.2952 45.094 80.124 45.0731C79.957 45.0522 79.765 45.0418 79.5479 45.0418V46.6825H80.1741ZM79.9862 44.8602C80.1115 44.8435 80.2263 44.8122 80.3307 44.7662C80.4392 44.7161 80.5269 44.6452 80.5937 44.5533C80.6647 44.4615 80.7001 44.3383 80.7001 44.1838C80.7001 43.9458 80.6313 43.7726 80.4935 43.664C80.3557 43.5555 80.1616 43.5012 79.9111 43.5012H79.5479V44.879C79.7149 44.879 79.861 44.8727 79.9862 44.8602Z" fill="#FC3BD2"/>
<path d="M124.378 40.759H121.817V40.5962H121.955C122.038 40.5962 122.107 40.5691 122.161 40.5148C122.216 40.4605 122.245 40.3937 122.249 40.3144V37.4211C122.249 37.346 122.22 37.2834 122.161 37.2333C122.107 37.179 122.038 37.1518 121.955 37.1518H121.817V36.989H123.652C123.71 36.989 123.775 36.9848 123.846 36.9765C123.917 36.9681 123.986 36.9577 124.053 36.9452C124.124 36.9327 124.186 36.9201 124.241 36.9076C124.299 36.8909 124.345 36.8763 124.378 36.8638V37.6842H124.209V37.5401C124.209 37.4691 124.184 37.4086 124.134 37.3585C124.088 37.3084 124.028 37.2813 123.953 37.2771H122.744V38.7175H123.733C123.8 38.7133 123.85 38.6924 123.884 38.6548C123.917 38.6131 123.934 38.5651 123.934 38.5108V38.3793H124.103V39.3374H123.934V39.2059C123.934 39.1517 123.917 39.1057 123.884 39.0682C123.854 39.0306 123.808 39.0076 123.746 38.9993H122.75V40.4396H123.646C123.783 40.4355 123.9 40.4167 123.996 40.3833C124.097 40.3457 124.182 40.2977 124.253 40.2392C124.324 40.1808 124.385 40.1098 124.435 40.0263C124.489 39.9428 124.537 39.8531 124.579 39.757H124.754L124.378 40.759Z" fill="#FC3BD2"/>
<path d="M118.201 36.9322V37.095H118.045C117.969 37.095 117.905 37.1201 117.85 37.1702C117.796 37.2203 117.765 37.2808 117.757 37.3518V39.7941L120.85 36.8821H121C120.988 36.9656 120.975 37.0512 120.963 37.1388C120.955 37.214 120.946 37.3017 120.938 37.4019C120.929 37.4979 120.925 37.596 120.925 37.6962V40.3014C120.929 40.3765 120.959 40.4412 121.013 40.4955C121.071 40.5456 121.138 40.5707 121.213 40.5707H121.37V40.7335H120.117V40.5707H120.274C120.349 40.5707 120.414 40.5456 120.468 40.4955C120.522 40.4412 120.554 40.3765 120.562 40.3014V37.8841L117.462 40.8212H117.324C117.337 40.7335 117.347 40.6437 117.356 40.5519C117.364 40.4726 117.37 40.3849 117.374 40.2889C117.383 40.1887 117.387 40.0905 117.387 39.9945V37.3643C117.379 37.2933 117.347 37.2328 117.293 37.1827C117.239 37.1326 117.172 37.1075 117.093 37.1075H116.942V36.9447L118.201 36.9322Z" fill="#FC3BD2"/>
<path d="M115.031 40.7337V40.5709H115.15C115.234 40.5709 115.305 40.5438 115.363 40.4895C115.422 40.4352 115.453 40.3684 115.457 40.2891V39.0178H113.315V40.2891C113.32 40.3684 113.351 40.4352 113.409 40.4895C113.468 40.5438 113.539 40.5709 113.622 40.5709H113.741V40.7337H112.395V40.5709H112.514C112.597 40.5709 112.668 40.5438 112.727 40.4895C112.785 40.4352 112.817 40.3684 112.821 40.2891V37.4209C112.817 37.3457 112.785 37.281 112.727 37.2267C112.668 37.1725 112.597 37.1453 112.514 37.1453H112.395V36.9762H113.741V37.1453H113.616C113.537 37.1453 113.468 37.1725 113.409 37.2267C113.355 37.2768 113.326 37.3374 113.322 37.4083V38.7297H115.464V37.4146C115.459 37.3395 115.428 37.2747 115.37 37.2205C115.311 37.1662 115.24 37.1391 115.157 37.1391H115.038V36.97H116.384V37.1391H116.265C116.186 37.1391 116.117 37.1662 116.058 37.2205C116.004 37.2747 115.973 37.3374 115.965 37.4083V40.2828C115.969 40.3621 116 40.4289 116.058 40.4832C116.117 40.5375 116.188 40.5646 116.271 40.5646H116.39V40.7275L115.031 40.7337Z" fill="#FC3BD2"/>
<path d="M111.444 40.759H108.883V40.5962H109.02C109.104 40.5962 109.173 40.5691 109.227 40.5148C109.281 40.4605 109.311 40.3937 109.315 40.3144V37.4211C109.315 37.346 109.286 37.2834 109.227 37.2333C109.173 37.179 109.104 37.1518 109.02 37.1518H108.883V36.989H110.718C110.776 36.989 110.841 36.9848 110.912 36.9765C110.983 36.9681 111.052 36.9577 111.118 36.9452C111.189 36.9327 111.252 36.9201 111.306 36.9076C111.365 36.8909 111.411 36.8763 111.444 36.8638V37.6842H111.275V37.5401C111.275 37.4691 111.25 37.4086 111.2 37.3585C111.154 37.3084 111.093 37.2813 111.018 37.2771H109.81V38.7175H110.799C110.866 38.7133 110.916 38.6924 110.949 38.6548C110.983 38.6131 110.999 38.5651 110.999 38.5108V38.3793H111.168V39.3374H110.999V39.2059C110.999 39.1517 110.983 39.1057 110.949 39.0682C110.92 39.0306 110.874 39.0076 110.812 38.9993H109.816V40.4396H110.711C110.849 40.4355 110.966 40.4167 111.062 40.3833C111.162 40.3457 111.248 40.2977 111.319 40.2392C111.39 40.1808 111.45 40.1098 111.5 40.0263C111.555 39.9428 111.603 39.8531 111.644 39.757H111.82L111.444 40.759Z" fill="#FC3BD2"/>
<path d="M108.431 37.1206H108.318C108.243 37.1206 108.178 37.1477 108.124 37.202C108.07 37.2563 108.04 37.321 108.036 37.3961V40.2957C108.04 40.3666 108.07 40.4293 108.124 40.4835C108.178 40.5336 108.243 40.5587 108.318 40.5587H108.437V40.7278H103.208V40.5587H103.327C103.368 40.5587 103.408 40.5503 103.446 40.5336H103.452C103.477 40.5169 103.5 40.4981 103.521 40.4773L103.533 40.4647C103.55 40.448 103.563 40.4313 103.571 40.4146C103.579 40.3938 103.588 40.3729 103.596 40.352L103.602 40.3332C103.606 40.3165 103.609 40.2998 103.609 40.2831V37.3961V37.3836C103.6 37.3126 103.571 37.2521 103.521 37.202C103.504 37.1895 103.49 37.177 103.477 37.1644C103.46 37.1561 103.442 37.1477 103.421 37.1394C103.408 37.1352 103.398 37.131 103.389 37.1269C103.385 37.1269 103.381 37.1269 103.377 37.1269C103.369 37.1227 103.36 37.1206 103.352 37.1206H103.327H103.208V36.9578H104.51V37.1206H104.391C104.316 37.1206 104.252 37.1477 104.197 37.202L104.172 37.227C104.135 37.2771 104.114 37.3335 104.11 37.3961V40.1704V40.1892C104.114 40.2059 104.116 40.2226 104.116 40.2393C104.12 40.2476 104.122 40.256 104.122 40.2643C104.135 40.2936 104.153 40.3228 104.178 40.352C104.183 40.3562 104.187 40.3604 104.191 40.3645C104.233 40.4063 104.279 40.4334 104.329 40.446C104.345 40.446 104.362 40.446 104.379 40.446H105.299H105.324C105.333 40.446 105.339 40.446 105.343 40.446C105.356 40.4418 105.366 40.4376 105.375 40.4334C105.416 40.4209 105.454 40.3979 105.487 40.3645C105.496 40.352 105.504 40.3416 105.512 40.3332C105.521 40.3249 105.527 40.3165 105.531 40.3082C105.535 40.2957 105.539 40.2852 105.544 40.2769C105.548 40.2643 105.552 40.2539 105.556 40.2456L105.562 40.233V37.3961C105.558 37.321 105.529 37.2563 105.475 37.202C105.425 37.1561 105.368 37.1289 105.306 37.1206H105.293H105.162V36.9578H106.483L106.464 37.1206H106.352H106.345H106.32C106.312 37.1248 106.301 37.1269 106.289 37.1269C106.264 37.1352 106.241 37.1436 106.22 37.1519C106.212 37.1603 106.201 37.1686 106.189 37.177C106.185 37.1811 106.178 37.1853 106.17 37.1895L106.157 37.202L106.132 37.227C106.128 37.2354 106.124 37.2417 106.12 37.2458C106.099 37.2751 106.084 37.3064 106.076 37.3398C106.076 37.3439 106.074 37.3481 106.07 37.3523C106.07 37.369 106.07 37.3836 106.07 37.3961V40.2268C106.082 40.281 106.107 40.327 106.145 40.3645C106.199 40.4188 106.262 40.446 106.333 40.446H107.266C107.337 40.446 107.399 40.4188 107.454 40.3645C107.508 40.3061 107.537 40.2372 107.541 40.1579V37.3961C107.537 37.321 107.508 37.2563 107.454 37.202C107.399 37.1477 107.335 37.1206 107.26 37.1206H107.141V36.9578H108.449L108.431 37.1206Z" fill="#FC3BD2"/>
<path d="M102.437 40.2388C102.491 40.3557 102.556 40.4392 102.631 40.4893C102.711 40.5394 102.786 40.5644 102.857 40.5644H102.957V40.7272H101.604V40.5644H101.705C101.75 40.5644 101.792 40.5477 101.83 40.5143C101.872 40.4809 101.892 40.4329 101.892 40.3703C101.892 40.341 101.886 40.3076 101.874 40.2701L101.554 39.4935H100.083L99.7631 40.2513C99.7464 40.2889 99.7381 40.3285 99.7381 40.3703C99.7381 40.4329 99.7569 40.4809 99.7945 40.5143C99.832 40.5477 99.8738 40.5644 99.9197 40.5644H100.02V40.7272H98.7549V40.5644H98.8551C98.9261 40.5644 99.0012 40.5394 99.0805 40.4893C99.1599 40.4392 99.2287 40.3557 99.2872 40.2388L100.552 37.5396C100.594 37.452 100.632 37.3685 100.665 37.2891C100.694 37.2182 100.719 37.1451 100.74 37.07C100.765 36.9948 100.78 36.9322 100.784 36.8821H100.922L102.437 40.2388ZM101.435 39.2055L100.828 37.7275L100.202 39.2055H101.435Z" fill="#FC3BD2"/>
<path d="M95.8734 39.4437C95.8734 39.4938 95.8713 39.5439 95.8671 39.594V39.7067L95.842 39.7318C95.8295 39.8069 95.8086 39.88 95.7794 39.951C95.7168 40.1054 95.6312 40.2411 95.5227 40.358C95.4141 40.4707 95.2847 40.5605 95.1344 40.6273C94.9883 40.6899 94.7816 40.7212 94.5144 40.7212V40.5584C94.7106 40.5208 94.8526 40.4687 94.9403 40.4019C95.0279 40.3309 95.1031 40.2432 95.1657 40.1388C95.2283 40.0345 95.2784 39.9217 95.316 39.8007C95.341 39.7213 95.3578 39.6399 95.3661 39.5564V37.3646C95.3619 37.2894 95.3327 37.2247 95.2784 37.1704C95.2242 37.1161 95.1594 37.089 95.0843 37.089H94.9653V36.9199H98.6852V37.089H98.5662C98.4911 37.089 98.4264 37.1161 98.3721 37.1704C98.3178 37.2205 98.2886 37.2811 98.2844 37.352V40.2891C98.2886 40.3643 98.3178 40.429 98.3721 40.4833C98.4264 40.5375 98.4911 40.5647 98.5662 40.5647H98.6789L98.6977 40.7275H97.3889V40.5647H97.5079C97.583 40.5647 97.6477 40.5375 97.702 40.4833C97.7563 40.429 97.7855 40.3643 97.7897 40.2891V37.4898C97.7855 37.4105 97.7563 37.3437 97.702 37.2894C97.6477 37.231 97.5851 37.2017 97.5141 37.2017H96.1364C96.0654 37.2017 96.0028 37.2289 95.9485 37.2831C95.8984 37.3374 95.8713 37.4021 95.8671 37.4773L95.8734 39.4437Z" fill="#FC3BD2"/>
<path d="M94.0714 37.9668C94.0297 37.8666 93.9816 37.7768 93.9274 37.6975C93.8773 37.614 93.8146 37.543 93.7395 37.4846C93.6685 37.4219 93.5829 37.3739 93.4827 37.3405C93.3867 37.3029 93.2719 37.2821 93.1383 37.2779H92.2428V40.2964C92.2469 40.3716 92.2782 40.4363 92.3367 40.4905C92.3993 40.5448 92.4724 40.572 92.5559 40.572H92.6811V40.741H91.3159V40.572H91.4412C91.5247 40.572 91.5956 40.5448 91.6541 40.4905C91.7167 40.4363 91.7501 40.3716 91.7543 40.2964V37.4219C91.7501 37.3426 91.7209 37.2758 91.6666 37.2215C91.6123 37.1673 91.5435 37.1401 91.46 37.1401H91.3222V36.9773H93.8835L94.253 37.9417L94.0714 37.9668Z" fill="#FC3BD2"/>
<path d="M87.8001 36.9322V37.095H87.6436C87.5684 37.095 87.5037 37.1201 87.4494 37.1702C87.3952 37.2203 87.3639 37.2808 87.3555 37.3518V39.7941L90.4492 36.8821H90.5995C90.5869 36.9656 90.5744 37.0512 90.5619 37.1388C90.5535 37.214 90.5452 37.3017 90.5368 37.4019C90.5285 37.4979 90.5243 37.596 90.5243 37.6962V40.3014C90.5285 40.3765 90.5577 40.4412 90.612 40.4955C90.6704 40.5456 90.7372 40.5707 90.8124 40.5707H90.9689V40.7335H89.7165V40.5707H89.873C89.9482 40.5707 90.0129 40.5456 90.0671 40.4955C90.1214 40.4412 90.1527 40.3765 90.1611 40.3014V37.8841L87.0612 40.8212H86.9234C86.9359 40.7335 86.9464 40.6437 86.9547 40.5519C86.9631 40.4726 86.9693 40.3849 86.9735 40.2889C86.9818 40.1887 86.986 40.0905 86.986 39.9945V37.3643C86.9777 37.2933 86.9464 37.2328 86.8921 37.1827C86.8378 37.1326 86.771 37.1075 86.6917 37.1075H86.5414V36.9447L87.8001 36.9322Z" fill="#FC3BD2"/>
<path d="M84.6455 36.9762C84.8585 36.9804 85.0526 37.0096 85.2279 37.0639C85.4075 37.114 85.5599 37.1871 85.6851 37.2831C85.8145 37.3749 85.9126 37.4877 85.9794 37.6213C86.0504 37.7549 86.0859 37.9052 86.0859 38.0722C86.0859 38.2517 86.0546 38.4124 85.992 38.5544C85.9293 38.6963 85.8438 38.8111 85.7352 38.8988C85.6308 38.9823 85.5077 39.0512 85.3657 39.1055C85.2279 39.1556 85.0797 39.1806 84.9211 39.1806C84.8125 39.1806 84.6998 39.1618 84.5829 39.1243C84.466 39.0867 84.347 39.0387 84.2259 38.9802V38.8863C84.2635 38.8946 84.3032 38.903 84.3449 38.9113C84.3783 38.9197 84.4159 38.9259 84.4577 38.9301C84.5036 38.9343 84.5495 38.9364 84.5954 38.9364C84.6706 38.9364 84.7499 38.9301 84.8334 38.9176C84.9211 38.9009 85.0067 38.8717 85.0902 38.8299C85.1737 38.784 85.2509 38.7214 85.3219 38.642C85.397 38.5585 85.4576 38.4521 85.5035 38.3227C85.516 38.2809 85.5244 38.2308 85.5285 38.1724C85.5369 38.1139 85.5411 38.0596 85.5411 38.0095C85.5411 37.7799 85.4597 37.5983 85.2968 37.4647C85.1382 37.3311 84.9169 37.2643 84.633 37.2643H84.0944V40.2891C84.0986 40.3684 84.1278 40.4352 84.1821 40.4895C84.2406 40.5438 84.3115 40.5709 84.395 40.5709H84.5328V40.7337H83.1613V40.5709H83.2991C83.3826 40.5709 83.4515 40.5438 83.5058 40.4895C83.56 40.4352 83.5893 40.3684 83.5934 40.2891V37.4083C83.5893 37.3332 83.558 37.2706 83.4995 37.2205C83.4411 37.1662 83.3701 37.1391 83.2866 37.1391H83.1488V36.97L84.6455 36.9762Z" fill="#FC3BD2"/>
<path d="M82.559 40.7275H81.2501V40.5646H81.3691C81.4442 40.5646 81.509 40.5375 81.5632 40.4832C81.6175 40.4289 81.6467 40.3642 81.6509 40.2891V37.5399C81.6467 37.4605 81.6175 37.3937 81.5632 37.3395C81.509 37.281 81.4463 37.2518 81.3754 37.2518H79.9976C79.9266 37.2518 79.864 37.2789 79.8097 37.3332C79.7596 37.3875 79.7325 37.4522 79.7283 37.5273V40.2891C79.7325 40.3642 79.7617 40.4289 79.816 40.4832C79.8703 40.5375 79.935 40.5646 80.0101 40.5646H80.1291V40.7275H78.8265V40.5646H78.9455C79.0207 40.5646 79.0854 40.5375 79.1397 40.4832C79.1939 40.4289 79.2232 40.3642 79.2273 40.2891V37.4146C79.2232 37.3395 79.1939 37.2747 79.1397 37.2205C79.0854 37.1662 79.0207 37.1391 78.9455 37.1391H78.8265V36.97H82.5464V37.1391H82.4275C82.3523 37.1391 82.2876 37.1662 82.2333 37.2205C82.179 37.2706 82.1498 37.3311 82.1456 37.4021V40.2891C82.1498 40.3642 82.179 40.4289 82.2333 40.4832C82.2876 40.5375 82.3523 40.5646 82.4275 40.5646H82.5402L82.559 40.7275Z" fill="#FC3BD2"/>
</svg>
