<?xml version="1.0" encoding="UTF-8"?>
<!DOCTYPE svg PUBLIC "-//W3C//DTD SVG 1.1//EN" "http://www.w3.org/Graphics/SVG/1.1/DTD/svg11.dtd">
<!-- Creator: CorelDRAW -->
<svg xmlns="http://www.w3.org/2000/svg" xml:space="preserve" width="64px" height="64px" version="1.1" style="shape-rendering:geometricPrecision; text-rendering:geometricPrecision; image-rendering:optimizeQuality; fill-rule:evenodd; clip-rule:evenodd"
viewBox="0 0 252.823 252.82"
 xmlns:xlink="http://www.w3.org/1999/xlink"
 xmlns:xodm="http://www.corel.com/coreldraw/odm/2003">
 <defs>
  <style type="text/css">
   <![CDATA[
    .fil0 {fill:#FC2BCF}
   ]]>
  </style>
 </defs>
 <g id="Слой_x0020_1">
  <metadata id="CorelCorpID_0Corel-Layer"/>
  <path class="fil0" d="M45.966 114.918c0,-38.083 30.869,-68.952 68.952,-68.952 38.079,0 68.952,30.869 68.952,68.952 0,18.334 -7.153,34.995 -18.824,47.344 -0.495,0.421 -0.982,0.864 -1.451,1.333 -0.469,0.469 -0.912,0.956 -1.333,1.451 -12.353,11.671 -29.014,18.824 -47.344,18.824 -38.083,0 -68.952,-30.873 -68.952,-68.952zm132.327 95.881c-18.164,12.032 -39.951,19.038 -63.375,19.038 -63.47,0 -114.918,-51.453 -114.918,-114.919 0,-63.47 51.448,-114.918 114.918,-114.918 63.471,0 114.919,51.448 114.919,114.918 0,23.42 -7.006,45.207 -19.038,63.375l35.291 35.295c8.978,8.974 8.978,23.524 0,32.502 -8.974,8.973 -23.528,8.973 -32.506,0l-35.291 -35.291z"/>
 </g>
</svg>
