<?xml version="1.0" encoding="UTF-8"?>
<!DOCTYPE svg PUBLIC "-//W3C//DTD SVG 1.1//EN" "http://www.w3.org/Graphics/SVG/1.1/DTD/svg11.dtd">
<!-- Creator: CorelDRAW -->
<svg xmlns="http://www.w3.org/2000/svg" xml:space="preserve" width="52px" height="57px" version="1.1" style="shape-rendering:geometricPrecision; text-rendering:geometricPrecision; image-rendering:optimizeQuality; fill-rule:evenodd; clip-rule:evenodd"
viewBox="0 0 1.122 1.217"
 xmlns:xlink="http://www.w3.org/1999/xlink"
 xmlns:xodm="http://www.corel.com/coreldraw/odm/2003">
 <defs>
  <style type="text/css">
   <![CDATA[
    .fil1 {fill:#1C262B}
    .fil0 {fill:#1C262B;fill-rule:nonzero}
   ]]>
  </style>
 </defs>
 <g id="Слой_x0020_1">
  <metadata id="CorelCorpID_0Corel-Layer"/>
  <g id="_3070868010736">
   <g id="_3035421927664">
    <path class="fil0" d="M0.894 0.752l0 -0.297c0,-0.012 -0.003,-0.026 -0.01,-0.037 -0.007,-0.011 -0.016,-0.021 -0.027,-0.027l-0.258 -0.15c-0.011,-0.005 -0.023,-0.009 -0.036,-0.009 -0.013,0 -0.026,0.004 -0.037,0.009l-0.257 0.15c-0.011,0.006 -0.021,0.016 -0.028,0.027 -0.005,0.011 -0.009,0.025 -0.009,0.037l0 0.297c0,0.014 0.004,0.026 0.009,0.039 0.007,0.011 0.017,0.02 0.028,0.026l0.257 0.149c0.011,0.007 0.024,0.01 0.037,0.01 0.013,0 0.025,-0.003 0.036,-0.01l0.258 -0.149c0.011,-0.006 0.02,-0.015 0.027,-0.026 0.007,-0.013 0.01,-0.025 0.01,-0.039z"/>
    <path class="fil1" d="M0.561 0c-0.04,0 -0.08,0.011 -0.114,0.03l-0.332 0.189 0 0.002c-0.036,0.019 -0.064,0.048 -0.085,0.083 -0.019,0.035 -0.03,0.074 -0.03,0.115l0 0.379c0,0.039 0.011,0.079 0.03,0.115 0.021,0.034 0.049,0.063 0.085,0.083l0 0 0.332 0.189c0.034,0.021 0.074,0.032 0.114,0.032 0.041,0 0.079,-0.011 0.115,-0.032l0.33 -0.189 0.001 0c0.035,-0.02 0.063,-0.049 0.084,-0.083 0.02,-0.036 0.031,-0.076 0.031,-0.115l0 -0.379c0,-0.041 -0.011,-0.08 -0.031,-0.115 -0.021,-0.035 -0.049,-0.064 -0.084,-0.083l-0.001 -0.002 -0.33 -0.189c-0.036,-0.019 -0.074,-0.03 -0.115,-0.03zm0 0.088c-0.025,0 -0.05,0.007 -0.07,0.019l0 0 -0.332 0.189 0 0c-0.022,0.012 -0.04,0.03 -0.052,0.052 -0.012,0.022 -0.019,0.045 -0.019,0.071l0 0.379c0,0.024 0.007,0.049 0.019,0.071 0.012,0.02 0.03,0.04 0.052,0.052l0 0 0.332 0.189 0 0c0.02,0.012 0.045,0.019 0.07,0.019 0.024,0 0.049,-0.007 0.071,-0.019l0 0 0.331 -0.189 0 0c0.022,-0.012 0.04,-0.032 0.053,-0.052 0.012,-0.022 0.019,-0.047 0.019,-0.071l0 0 0 -0.379 0 0c0,-0.026 -0.007,-0.049 -0.019,-0.071 -0.013,-0.022 -0.031,-0.04 -0.053,-0.052l-0.331 -0.189 0 0c-0.022,-0.012 -0.047,-0.019 -0.071,-0.019z"/>
   </g>
  </g>
 </g>
</svg>
