<?xml version="1.0" encoding="UTF-8"?>
<!DOCTYPE svg PUBLIC "-//W3C//DTD SVG 1.1//EN" "http://www.w3.org/Graphics/SVG/1.1/DTD/svg11.dtd">
<!-- Creator: CorelDRAW -->
<svg xmlns="http://www.w3.org/2000/svg" xml:space="preserve" width="52px" height="57px" version="1.1" style="shape-rendering:geometricPrecision; text-rendering:geometricPrecision; image-rendering:optimizeQuality; fill-rule:evenodd; clip-rule:evenodd"
viewBox="0 0 1.063 1.153"
 xmlns:xlink="http://www.w3.org/1999/xlink"
 xmlns:xodm="http://www.corel.com/coreldraw/odm/2003">
 <defs>
  <style type="text/css">
   <![CDATA[
    .fil1 {fill:#7000FF}
    .fil0 {fill:#7000FF;fill-rule:nonzero}
   ]]>
  </style>
 </defs>
 <g id="Слой_x0020_1">
  <metadata id="CorelCorpID_0Corel-Layer"/>
  <g id="_3035536721664">
   <path class="fil0" d="M0.847 0.714l0 -0.283c0,-0.012 -0.003,-0.024 -0.009,-0.035 -0.007,-0.011 -0.015,-0.02 -0.026,-0.026l-0.244 -0.141c-0.01,-0.006 -0.023,-0.009 -0.035,-0.009 -0.012,0 -0.024,0.003 -0.035,0.009l-0.244 0.141c-0.01,0.006 -0.019,0.015 -0.025,0.026 -0.006,0.011 -0.009,0.023 -0.009,0.035l0 0.283c0,0.012 0.003,0.024 0.009,0.035 0.006,0.011 0.015,0.02 0.025,0.026l0.244 0.141c0.011,0.006 0.023,0.009 0.035,0.009 0.012,0 0.025,-0.003 0.035,-0.009l0.244 -0.141c0.011,-0.006 0.019,-0.015 0.026,-0.026 0.006,-0.011 0.009,-0.023 0.009,-0.035z"/>
   <path class="fil1" d="M0.532 0c-0.038,0 -0.076,0.01 -0.109,0.029l-0.314 0.179 0 0.001c-0.033,0.019 -0.061,0.046 -0.08,0.079 -0.019,0.033 -0.029,0.071 -0.029,0.109l0 0.359c0,0.038 0.01,0.076 0.029,0.109 0.019,0.033 0.047,0.06 0.08,0.079l0 0 0.314 0.18c0.033,0.019 0.071,0.029 0.109,0.029 0.038,0 0.075,-0.01 0.108,-0.029l0.314 -0.18 0 0c0.033,-0.019 0.061,-0.046 0.08,-0.079 0.019,-0.033 0.029,-0.071 0.029,-0.109l0 -0.359c0,-0.038 -0.01,-0.076 -0.029,-0.109 -0.019,-0.033 -0.047,-0.06 -0.08,-0.079l0 -0.001 -0.314 -0.179c-0.033,-0.019 -0.07,-0.029 -0.108,-0.029zm0 0.083c-0.024,0 -0.047,0.006 -0.068,0.018l0 0 -0.314 0.179 0 0c-0.02,0.012 -0.037,0.029 -0.049,0.05 -0.012,0.02 -0.018,0.043 -0.018,0.067l0 0.359c0,0.023 0.006,0.047 0.018,0.067 0.012,0.021 0.029,0.037 0.049,0.049l0 0 0.314 0.18 0 0c0.021,0.012 0.044,0.018 0.068,0.018 0.023,0 0.046,-0.006 0.067,-0.018l0 0 0.314 -0.18 0 0c0.02,-0.012 0.037,-0.028 0.049,-0.049 0.012,-0.02 0.018,-0.044 0.018,-0.067l0 0 0 -0.359 0 0c0,-0.024 -0.006,-0.047 -0.018,-0.067 -0.012,-0.021 -0.029,-0.038 -0.049,-0.05l-0.314 -0.179 0 0c-0.021,-0.012 -0.044,-0.018 -0.067,-0.018z"/>
  </g>
 </g>
</svg>
