<?xml version="1.0" encoding="UTF-8"?>
<!DOCTYPE svg PUBLIC "-//W3C//DTD SVG 1.1//EN" "http://www.w3.org/Graphics/SVG/1.1/DTD/svg11.dtd">
<!-- Creator: CorelDRAW -->
<svg xmlns="http://www.w3.org/2000/svg" xml:space="preserve" width="53px" height="64px" version="1.1" style="shape-rendering:geometricPrecision; text-rendering:geometricPrecision; image-rendering:optimizeQuality; fill-rule:evenodd; clip-rule:evenodd"
viewBox="0 0 10.038 12.108"
 xmlns:xlink="http://www.w3.org/1999/xlink"
 xmlns:xodm="http://www.corel.com/coreldraw/odm/2003">
 <defs>
  <style type="text/css">
   <![CDATA[
    .fil0 {fill:#FC2BCF;fill-rule:nonzero}
   ]]>
  </style>
 </defs>
 <g id="Слой_x0020_1">
  <metadata id="CorelCorpID_0Corel-Layer"/>
  <path class="fil0" d="M7.715 7.886c0.986,0.195 1.772,0.535 2.127,1.197l0.002 0.005c0.259,0.499 0.259,1.094 0,1.593l-0.002 0.005c-0.353,0.657 -1.105,1.02 -2.142,1.198 -0.461,0.091 -0.927,0.15 -1.396,0.177 -0.439,0.047 -0.875,0.047 -1.295,0.047l-0.802 0 -0.022 -0.003c-0.148,-0.019 -0.289,-0.028 -0.423,-0.028l-0.009 0 -0.01 0c-0.473,-0.024 -0.944,-0.082 -1.409,-0.173 -0.993,-0.187 -1.775,-0.538 -2.13,-1.197l0 -0.001c-0.133,-0.248 -0.203,-0.525 -0.204,-0.806 -0.002,-0.284 0.065,-0.564 0.198,-0.815 0.349,-0.662 1.133,-1.018 2.137,-1.2 0.465,-0.089 0.935,-0.146 1.408,-0.172 0.854,-0.067 1.712,-0.067 2.566,0 0.471,0.027 0.939,0.084 1.403,0.172l0.003 0.001zm-3.948 0.188c0.838,-0.066 1.679,-0.066 2.517,0 0.457,0.026 0.911,0.082 1.36,0.167 0.972,0.193 1.607,0.507 1.879,1.013 0.204,0.395 0.204,0.866 0,1.261 -0.272,0.506 -0.882,0.84 -1.889,1.013 -0.449,0.088 -0.903,0.146 -1.36,0.172 -0.423,0.045 -0.846,0.045 -1.274,0.045l-0.77 0c-0.161,-0.02 -0.317,-0.03 -0.468,-0.03 -0.457,-0.023 -0.911,-0.079 -1.36,-0.167 -0.972,-0.182 -1.607,-0.506 -1.879,-1.013 -0.105,-0.196 -0.16,-0.415 -0.161,-0.638 -0.002,-0.224 0.052,-0.445 0.156,-0.643 0.267,-0.506 0.902,-0.835 1.884,-1.013 0.451,-0.086 0.906,-0.142 1.365,-0.167zm1.254 -8.074c1.89,0 3.419,1.54 3.419,3.436 0,1.896 -1.529,3.436 -3.419,3.436 -1.891,0 -3.419,-1.54 -3.419,-3.436 0,-1.896 1.528,-3.436 3.419,-3.436zm0 0.362c1.688,0 3.056,1.376 3.056,3.074 0,1.697 -1.368,3.073 -3.056,3.073 -1.689,0 -3.057,-1.376 -3.057,-3.073 0,-1.698 1.368,-3.074 3.057,-3.074z"/>
 </g>
</svg>
